Coordinates
version=1
nRows=9
nColumns=36
inDegrees=yes

Units are S.I. units (second, meters, Newtons, ...)
If the header above contains a line with 'inDegrees', this indicates whether rotational values are in degrees (yes) or radians (no).

endheader
time	pelvis_tilt	pelvis_list	pelvis_rotation	pelvis_tx	pelvis_ty	pelvis_tz	hip_flexion_r	hip_adduction_r	hip_rotation_r	knee_angle_r	knee_angle_r_beta	ankle_angle_r	subtalar_angle_r	mtp_angle_r	hip_flexion_l	hip_adduction_l	hip_rotation_l	knee_angle_l	knee_angle_l_beta	ankle_angle_l	subtalar_angle_l	mtp_angle_l	lumbar_extension	lumbar_bending	lumbar_rotation	arm_flex_r	arm_add_r	arm_rot_r	elbow_flex_r	pro_sup_r	arm_flex_l	arm_add_l	arm_rot_l	elbow_flex_l	pro_sup_l
     15.11666670	     -6.79124560	     -6.75114460	     -0.22338906	      0.88477737	      0.79633158	      0.74610796	     23.38366207	      9.34661571	      1.04852568	     16.55877728	      0.28900518	      5.64638335	     -9.51400689	     -7.49999987	      7.16008424	     -9.71368983	     -2.44101378	     50.82233571	      0.88701709	     -9.07017425	     -4.93873754	     -7.49999987	     11.00781722	      9.19444202	     -6.07700407	      0.11425168	    -14.32719378	      8.67259440	      9.56823997	     96.87228288	      3.64925220	     -7.73156015	      5.27261104	      9.53818650	     93.06465187
     15.13333330	     -6.97949203	     -7.20464986	      0.19876473	      0.88581989	      0.79603740	      0.74956808	     22.11076982	     10.03681731	      0.85359222	     16.35055633	      0.28537104	      6.59415820	     -9.49479796	     -7.49999987	      9.60586221	    -10.43057738	     -1.60163585	     54.38107905	      0.94912888	    -10.93386690	     -5.86354426	     -7.49999987	     11.71136356	      9.32147436	     -5.89925910	     -0.17179000	    -14.20362406	      8.39418399	      9.55040985	     96.67064801	      3.28082209	     -7.55427941	      5.13773610	      9.07919954	     92.96957435
     15.15000000	     -7.32752053	     -7.35170186	      0.62327915	      0.88630744	      0.79560841	      0.75239569	     20.82887657	     10.37578417	      0.67432480	     15.69827384	      0.27398657	      7.43355332	     -9.36011221	     -7.49999987	     12.36985894	    -10.68320002	     -0.85606811	     57.52685344	      1.00403300	    -11.97199999	     -7.26824485	     -7.49999987	     12.49303922	      9.08786754	     -5.82858413	     -0.49713939	    -13.96938565	      8.07244293	      9.64146853	     96.45657278	      2.92340789	     -7.52615238	      5.06198164	      8.57404936	     92.92114401
     15.16666670	     -7.50858273	     -7.27751256	      0.95127294	      0.88604395	      0.79591538	      0.75447312	     19.29227965	     10.50041509	      0.61378288	     14.74415668	      0.25733408	      8.20873309	     -9.24486934	     -7.49999987	     14.90455759	    -10.53126983	     -0.33324895	     59.99867686	      1.04717446	    -11.77377003	     -8.85404296	     -7.49999987	     12.94380222	      8.59227314	     -5.59389677	     -0.68780126	    -13.69102473	      7.82704920	      9.90515110	     96.22976302	      2.62829535	     -7.62637242	      5.07828105	      8.32511378	     92.88626126
     15.18333330	     -7.58940166	     -6.94725099	      1.18474088	      0.88454579	      0.79657469	      0.75615656	     17.65282344	     10.35766267	      0.71375521	     13.65900714	      0.23839465	      8.94654810	     -9.10190950	     -7.49999987	     17.19018162	     -9.99426927	     -0.23211828	     61.65644590	      1.07610799	    -10.15025750	    -10.56765823	     -7.49999987	     13.05418190	      7.91967438	     -5.32570464	     -0.76042303	    -13.36845843	      7.65217858	     10.25823819	     96.01144197	      2.42991876	     -7.84450109	      5.15742627	      8.20826256	     92.86901374
     15.20000000	     -7.62113874	     -6.39856746	      1.16991215	      0.88223950	      0.79716673	      0.75815731	     16.05588751	     10.01475069	      1.10920409	     12.69811410	      0.22162390	      9.63290625	     -8.95592085	     -7.49999987	     19.34370124	     -9.17040018	     -0.54908319	     62.52481963	      1.09126397	     -7.47424442	    -12.32396292	     -7.49999987	     12.84147851	      7.13353834	     -4.94323087	     -0.51792200	    -13.04168211	      7.61159022	     10.65414137	     95.87405828	      2.28929351	     -8.16892227	      5.19090961	      8.29468725	     92.82009463
     15.21666670	     -7.45504000	     -5.81293800	      0.97887838	      0.88078347	      0.79813375	      0.75976443	     14.29624734	      9.60296084	      1.37259685	     11.85643793	      0.20693388	     10.38511850	     -8.52055615	     -7.49999987	     21.30724193	     -8.29833592	     -1.02792541	     62.84326702	      1.09682192	     -3.83510082	    -13.51958203	     -7.49999987	     12.52263307	      6.43408918	     -4.13480108	     -0.49356866	    -12.79735469	      7.67071360	     11.08728882	     91.75098997	      2.51737760	     -8.23634790	      5.84541685	      7.69115223	     89.33923031
     15.23333330	     -7.21750376	     -5.12240349	      0.47531270	      0.88015445	      0.79941987	      0.76084621	     12.52248716	      9.12154583	      2.04861675	     11.11639902	      0.19401776	     11.07861884	     -8.35124172	     -7.49999987	     23.26677581	     -7.39243264	     -1.64253866	     62.61193332	      1.09278439	     -0.86764007	    -14.66668450	     -7.49999987	     11.82519843	      5.73242268	     -3.24824992	     -0.12540922	    -12.62619603	      7.90738590	     11.62307212	     89.52306478	      2.57910282	     -8.44112440	      6.56083806	      7.64051182	     87.61245388
     15.25000000	     -6.71353984	     -4.44069037	     -0.22897827	      0.87932959	      0.80067530	      0.76163455	     10.42980986	      8.64016993	      2.88758604	     10.22936573	      0.17853611	     11.63664209	     -7.95388024	     -7.49999987	     24.88240511	     -6.72783227	     -2.41190262	     61.75934663	      1.07790394	      1.57612223	    -15.15453786	     -7.49999987	     10.69329107	      5.06865339	     -2.04523173	      0.20992257	    -12.72431589	      9.37196199	     12.57537227	     90.46590070	      2.82152539	     -8.96110269	      9.96289045	      7.91084603	     90.24371448
